STARTFONT 2.1
FONT -Monotype-Century Gothic-Regular-I-Normal--17-120-100-100-P-81-iso8859-4
SIZE 12 100 100
FONTBOUNDINGBOX 23 20 -3 -4

STARTPROPERTIES 24
FOUNDRY "Monotype"
FAMILY_NAME "Century Gothic"
WEIGHT_NAME "Regular"
SLANT "I"
SETWIDTH_NAME "Normal"
ADD_STYLE_NAME ""
PIXEL_SIZE 17
POINT_SIZE 120
RESOLUTION_X 100
RESOLUTION_Y 100
SPACING "P"
AVERAGE_WIDTH 81
CHARSET_REGISTRY "iso8859"
CHARSET_ENCODING "4"
FACE_NAME "Century Gothic it ISO Latin4"
_DEC_DEVICE_FONTNAMES "PS=centurygothic-italic-lat4"
COPYRIGHT "Copyright (c) 1994 Monotype Typography Ltd."
CAP_HEIGHT 14
X_HEIGHT 10
WEIGHT 10
QUAD_WIDTH 11
DEFAULT_CHAR 160
FONT_DESCENT 4
FONT_ASCENT 16
ENDPROPERTIES

CHARS 191

STARTCHAR space
ENCODING 32
SWIDTH 277 0
DWIDTH 5 0
BBX 0 0 0 0
BITMAP
ENDCHAR

STARTCHAR exclam
ENCODING 33
SWIDTH 295 0
DWIDTH 5 0
BBX 4 13 1 0
BITMAP
10
10
10
20
20
20
20
40
40
40
00
80
80
ENDCHAR

STARTCHAR quotedbl
ENCODING 34
SWIDTH 309 0
DWIDTH 5 0
BBX 4 4 1 9
BITMAP
90
90
90
90
ENDCHAR

STARTCHAR numbersign
ENCODING 35
SWIDTH 720 0
DWIDTH 12 0
BBX 9 13 2 0
BITMAP
1100
1100
1100
1100
7F80
2200
2200
2200
FF00
4400
4400
4400
4400
ENDCHAR

STARTCHAR dollar
ENCODING 36
SWIDTH 554 0
DWIDTH 9 0
BBX 8 17 1 -2
BITMAP
04
04
0E
15
24
24
28
18
08
0C
0A
12
92
54
38
10
10
ENDCHAR

STARTCHAR percent
ENCODING 37
SWIDTH 775 0
DWIDTH 13 0
BBX 13 13 0 0
BITMAP
3870
4FA0
8440
8480
4900
3100
0200
0470
0898
0908
1108
2090
4060
ENDCHAR

STARTCHAR ampersand
ENCODING 38
SWIDTH 757 0
DWIDTH 13 0
BBX 10 12 2 0
BITMAP
1C00
2200
2200
2200
1400
1800
2800
4480
8280
8300
C680
78C0
ENDCHAR

STARTCHAR quoteright
ENCODING 39
SWIDTH 351 0
DWIDTH 6 0
BBX 2 4 2 9
BITMAP
40
40
40
80
ENDCHAR

STARTCHAR parenleft
ENCODING 40
SWIDTH 369 0
DWIDTH 6 0
BBX 4 17 2 -3
BITMAP
10
20
20
40
40
40
80
80
80
80
80
80
80
80
40
40
20
ENDCHAR

STARTCHAR parenright
ENCODING 41
SWIDTH 369 0
DWIDTH 6 0
BBX 4 17 1 -3
BITMAP
40
20
20
10
10
10
10
10
10
10
10
20
20
20
40
40
80
ENDCHAR

STARTCHAR asterisk
ENCODING 42
SWIDTH 425 0
DWIDTH 7 0
BBX 5 6 1 6
BITMAP
20
A8
68
B0
A8
20
ENDCHAR

STARTCHAR plus
ENCODING 43
SWIDTH 606 0
DWIDTH 10 0
BBX 9 9 1 2
BITMAP
0800
0800
0800
0800
FF80
0800
0800
0800
0800
ENDCHAR

STARTCHAR comma
ENCODING 44
SWIDTH 277 0
DWIDTH 5 0
BBX 3 4 1 -2
BITMAP
60
40
80
80
ENDCHAR

STARTCHAR minus
ENCODING 45
SWIDTH 606 0
DWIDTH 10 0
BBX 8 1 1 6
BITMAP
FF
ENDCHAR

STARTCHAR period
ENCODING 46
SWIDTH 277 0
DWIDTH 5 0
BBX 1 2 2 0
BITMAP
80
80
ENDCHAR

STARTCHAR slash
ENCODING 47
SWIDTH 437 0
DWIDTH 7 0
BBX 6 15 1 -3
BITMAP
04
04
08
08
08
10
10
20
20
40
40
40
80
80
80
ENDCHAR

STARTCHAR zero
ENCODING 48
SWIDTH 554 0
DWIDTH 9 0
BBX 8 13 1 0
BITMAP
0C
12
21
21
41
41
81
82
82
84
84
48
30
ENDCHAR

STARTCHAR one
ENCODING 49
SWIDTH 554 0
DWIDTH 9 0
BBX 4 13 3 0
BITMAP
70
10
10
20
20
20
40
40
40
40
80
80
80
ENDCHAR

STARTCHAR two
ENCODING 50
SWIDTH 554 0
DWIDTH 9 0
BBX 8 13 1 0
BITMAP
1E
23
41
01
01
02
04
08
10
20
40
80
FE
ENDCHAR

STARTCHAR three
ENCODING 51
SWIDTH 554 0
DWIDTH 9 0
BBX 8 13 1 0
BITMAP
0E
13
21
01
02
04
0C
02
02
82
82
44
38
ENDCHAR

STARTCHAR four
ENCODING 52
SWIDTH 554 0
DWIDTH 9 0
BBX 8 13 1 0
BITMAP
01
03
05
09
0A
12
22
24
44
FF
08
08
08
ENDCHAR

STARTCHAR five
ENCODING 53
SWIDTH 554 0
DWIDTH 9 0
BBX 9 13 0 0
BITMAP
0F80
0800
1000
1000
1C00
2200
0100
0100
0100
8100
8200
4600
3800
ENDCHAR

STARTCHAR six
ENCODING 54
SWIDTH 554 0
DWIDTH 9 0
BBX 8 13 1 0
BITMAP
02
04
08
10
20
3C
42
81
81
81
82
46
38
ENDCHAR

STARTCHAR seven
ENCODING 55
SWIDTH 554 0
DWIDTH 9 0
BBX 8 13 2 0
BITMAP
7F
02
04
04
08
08
10
10
20
20
40
40
80
ENDCHAR

STARTCHAR eight
ENCODING 56
SWIDTH 554 0
DWIDTH 9 0
BBX 8 13 1 0
BITMAP
1E
21
41
41
22
1C
24
42
82
82
82
84
78
ENDCHAR

STARTCHAR nine
ENCODING 57
SWIDTH 554 0
DWIDTH 9 0
BBX 8 13 1 0
BITMAP
1C
62
41
81
81
81
42
3C
04
08
10
20
40
ENDCHAR

STARTCHAR colon
ENCODING 58
SWIDTH 277 0
DWIDTH 5 0
BBX 2 9 1 0
BITMAP
40
40
00
00
00
00
00
80
80
ENDCHAR

STARTCHAR semicolon
ENCODING 59
SWIDTH 277 0
DWIDTH 5 0
BBX 3 11 1 -2
BITMAP
20
20
00
00
00
00
00
60
40
80
80
ENDCHAR

STARTCHAR less
ENCODING 60
SWIDTH 606 0
DWIDTH 10 0
BBX 8 8 1 2
BITMAP
03
0C
30
C0
40
30
0C
02
ENDCHAR

STARTCHAR equal
ENCODING 61
SWIDTH 606 0
DWIDTH 10 0
BBX 8 5 1 4
BITMAP
FF
00
00
00
FF
ENDCHAR

STARTCHAR greater
ENCODING 62
SWIDTH 606 0
DWIDTH 10 0
BBX 8 8 1 2
BITMAP
40
30
0C
02
03
0C
30
C0
ENDCHAR

STARTCHAR question
ENCODING 63
SWIDTH 591 0
DWIDTH 10 0
BBX 7 13 2 0
BITMAP
3C
46
82
82
0C
78
C0
84
88
70
00
40
40
ENDCHAR

STARTCHAR at
ENCODING 64
SWIDTH 867 0
DWIDTH 15 0
BBX 13 13 1 0
BITMAP
0F80
3060
4010
4750
88C8
9088
9088
9090
89A0
46C0
4010
3060
0F80
ENDCHAR

STARTCHAR A
ENCODING 65
SWIDTH 740 0
DWIDTH 13 0
BBX 11 12 1 0
BITMAP
0200
0200
0500
0900
0880
1080
1080
3FC0
4040
4040
8020
8020
ENDCHAR

STARTCHAR B
ENCODING 66
SWIDTH 574 0
DWIDTH 10 0
BBX 8 12 1 0
BITMAP
1E
11
11
21
22
3C
42
41
41
81
82
FC
ENDCHAR

STARTCHAR C
ENCODING 67
SWIDTH 813 0
DWIDTH 14 0
BBX 11 12 2 0
BITMAP
0700
18C0
2060
4000
4000
8000
8000
8000
8000
40C0
6180
1E00
ENDCHAR

STARTCHAR D
ENCODING 68
SWIDTH 744 0
DWIDTH 13 0
BBX 11 12 1 0
BITMAP
1F00
10C0
1040
2020
2020
2020
4020
4040
4040
8080
8300
FC00
ENDCHAR

STARTCHAR E
ENCODING 69
SWIDTH 536 0
DWIDTH 9 0
BBX 9 12 1 0
BITMAP
1F80
1000
1000
2000
2000
3F00
4000
4000
4000
8000
8000
FE00
ENDCHAR

STARTCHAR F
ENCODING 70
SWIDTH 485 0
DWIDTH 8 0
BBX 8 12 1 0
BITMAP
1F
10
10
20
20
3E
40
40
40
80
80
80
ENDCHAR

STARTCHAR G
ENCODING 71
SWIDTH 872 0
DWIDTH 15 0
BBX 12 12 2 0
BITMAP
0780
1860
2030
4000
4000
8000
83E0
8020
8020
40C0
6180
1E00
ENDCHAR

STARTCHAR H
ENCODING 72
SWIDTH 683 0
DWIDTH 12 0
BBX 11 12 1 0
BITMAP
1020
1020
1020
2040
2040
3FC0
4080
4080
4080
8100
8100
8100
ENDCHAR

STARTCHAR I
ENCODING 73
SWIDTH 226 0
DWIDTH 4 0
BBX 4 12 1 0
BITMAP
10
10
10
20
20
20
40
40
40
80
80
80
ENDCHAR

STARTCHAR J
ENCODING 74
SWIDTH 482 0
DWIDTH 8 0
BBX 8 12 0 0
BITMAP
01
01
01
02
02
02
04
04
04
08
88
70
ENDCHAR

STARTCHAR K
ENCODING 75
SWIDTH 591 0
DWIDTH 10 0
BBX 9 12 1 0
BITMAP
1080
1100
1200
2400
2800
3000
4800
4400
4400
8200
8100
8100
ENDCHAR

STARTCHAR L
ENCODING 76
SWIDTH 462 0
DWIDTH 8 0
BBX 7 12 1 0
BITMAP
10
10
10
20
20
20
40
40
40
80
80
FE
ENDCHAR

STARTCHAR M
ENCODING 77
SWIDTH 919 0
DWIDTH 15 0
BBX 13 12 1 0
BITMAP
1008
1018
3018
2828
2828
4848
4488
4488
4508
8308
8208
8208
ENDCHAR

STARTCHAR N
ENCODING 78
SWIDTH 740 0
DWIDTH 12 0
BBX 11 12 1 0
BITMAP
1020
1020
1820
2840
2440
2440
4480
4280
4280
8300
8100
8100
ENDCHAR

STARTCHAR O
ENCODING 79
SWIDTH 869 0
DWIDTH 15 0
BBX 12 12 2 0
BITMAP
0780
1860
2020
4010
4010
8010
8010
8020
8020
4040
6180
1E00
ENDCHAR

STARTCHAR P
ENCODING 80
SWIDTH 592 0
DWIDTH 10 0
BBX 9 12 1 0
BITMAP
1F00
1180
1080
2080
2080
2100
7E00
4000
4000
8000
8000
8000
ENDCHAR

STARTCHAR Q
ENCODING 81
SWIDTH 871 0
DWIDTH 15 0
BBX 12 12 2 0
BITMAP
0780
1860
2020
4010
4010
8010
8010
8020
8320
40C0
61A0
1E30
ENDCHAR

STARTCHAR R
ENCODING 82
SWIDTH 607 0
DWIDTH 10 0
BBX 9 12 1 0
BITMAP
1F00
1080
1080
2080
2100
3E00
4800
4400
4400
8200
8200
8100
ENDCHAR

STARTCHAR S
ENCODING 83
SWIDTH 498 0
DWIDTH 8 0
BBX 9 12 0 0
BITMAP
0E00
1100
2080
2000
1000
0800
0400
0200
0200
8200
4400
3800
ENDCHAR

STARTCHAR T
ENCODING 84
SWIDTH 426 0
DWIDTH 7 0
BBX 7 12 1 0
BITMAP
FE
10
10
20
20
20
40
40
40
80
80
80
ENDCHAR

STARTCHAR U
ENCODING 85
SWIDTH 655 0
DWIDTH 11 0
BBX 10 12 1 0
BITMAP
2040
2040
2040
4080
4080
4080
4100
8100
8100
8200
4200
3C00
ENDCHAR

STARTCHAR V
ENCODING 86
SWIDTH 702 0
DWIDTH 11 0
BBX 11 12 2 0
BITMAP
8020
8040
8040
4080
4080
4100
4200
2200
2400
2800
1800
1000
ENDCHAR

STARTCHAR W
ENCODING 87
SWIDTH 960 0
DWIDTH 16 0
BBX 16 12 2 0
BITMAP
8101
8101
8282
8282
8484
4484
4848
4848
5050
5050
2020
2020
ENDCHAR

STARTCHAR X
ENCODING 88
SWIDTH 609 0
DWIDTH 10 0
BBX 9 12 1 0
BITMAP
4080
2100
2200
1200
1400
0800
1400
2400
2200
4200
8100
8100
ENDCHAR

STARTCHAR Y
ENCODING 89
SWIDTH 592 0
DWIDTH 9 0
BBX 10 12 1 0
BITMAP
8040
8080
4100
4200
2400
2800
1000
1000
1000
2000
2000
2000
ENDCHAR

STARTCHAR Z
ENCODING 90
SWIDTH 480 0
DWIDTH 8 0
BBX 9 12 0 0
BITMAP
7F80
0100
0200
0200
0400
0800
0800
1000
2000
2000
4000
FE00
ENDCHAR

STARTCHAR bracketleft
ENCODING 91
SWIDTH 351 0
DWIDTH 6 0
BBX 6 16 1 -3
BITMAP
1C
10
10
10
20
20
20
20
40
40
40
40
80
80
80
E0
ENDCHAR

STARTCHAR backslash
ENCODING 92
SWIDTH 605 0
DWIDTH 10 0
BBX 9 15 1 -2
BITMAP
8000
4000
4000
2000
2000
1000
1000
0800
0800
0400
0400
0200
0100
0100
0080
ENDCHAR

STARTCHAR bracketright
ENCODING 93
SWIDTH 351 0
DWIDTH 6 0
BBX 7 16 -1 -3
BITMAP
0E
02
02
04
04
04
08
08
08
08
10
10
10
20
20
E0
ENDCHAR

STARTCHAR asciicircum
ENCODING 94
SWIDTH 672 0
DWIDTH 11 0
BBX 9 9 1 4
BITMAP
0800
0800
1400
1400
2200
2200
4100
4100
8080
ENDCHAR

STARTCHAR underscore
ENCODING 95
SWIDTH 500 0
DWIDTH 9 0
BBX 9 1 0 -2
BITMAP
FF80
ENDCHAR

STARTCHAR quoteleft
ENCODING 96
SWIDTH 351 0
DWIDTH 6 0
BBX 2 4 4 9
BITMAP
40
80
80
80
ENDCHAR

STARTCHAR a
ENCODING 97
SWIDTH 683 0
DWIDTH 12 0
BBX 10 9 1 0
BITMAP
1E40
6140
40C0
8080
8080
8080
8100
4300
3D00
ENDCHAR

STARTCHAR b
ENCODING 98
SWIDTH 682 0
DWIDTH 12 0
BBX 10 12 1 0
BITMAP
1000
1000
1000
2F00
3080
2040
4040
4040
4040
C080
A180
9E00
ENDCHAR

STARTCHAR c
ENCODING 99
SWIDTH 647 0
DWIDTH 11 0
BBX 9 9 1 0
BITMAP
1E00
6180
4080
8000
8000
8000
8100
4300
3C00
ENDCHAR

STARTCHAR d
ENCODING 100
SWIDTH 685 0
DWIDTH 12 0
BBX 11 12 1 0
BITMAP
0020
0020
0020
1E40
6140
40C0
8080
8080
8080
8100
4300
3D00
ENDCHAR

STARTCHAR e
ENCODING 101
SWIDTH 650 0
DWIDTH 11 0
BBX 9 9 1 0
BITMAP
1E00
6100
4080
8080
FF00
8000
8000
4300
3C00
ENDCHAR

STARTCHAR f
ENCODING 102
SWIDTH 314 0
DWIDTH 5 0
BBX 6 13 1 0
BITMAP
0C
10
10
10
FC
20
20
40
40
40
80
80
80
ENDCHAR

STARTCHAR g
ENCODING 103
SWIDTH 673 0
DWIDTH 11 0
BBX 10 12 1 -3
BITMAP
1E40
61C0
40C0
8040
8080
8080
8180
4280
3D00
0100
C300
3C00
ENDCHAR

STARTCHAR h
ENCODING 104
SWIDTH 610 0
DWIDTH 10 0
BBX 9 12 1 0
BITMAP
1000
1000
1000
2F00
3080
2080
4100
4100
4100
8200
8200
8200
ENDCHAR

STARTCHAR i
ENCODING 105
SWIDTH 200 0
DWIDTH 3 0
BBX 4 12 0 0
BITMAP
10
10
00
20
20
20
40
40
40
80
80
80
ENDCHAR

STARTCHAR j
ENCODING 106
SWIDTH 203 0
DWIDTH 3 0
BBX 6 15 -2 -3
BITMAP
04
04
00
08
08
08
10
10
10
10
20
20
20
20
C0
ENDCHAR

STARTCHAR k
ENCODING 107
SWIDTH 502 0
DWIDTH 9 0
BBX 8 12 1 0
BITMAP
10
10
10
23
24
28
50
68
44
84
82
81
ENDCHAR

STARTCHAR l
ENCODING 108
SWIDTH 200 0
DWIDTH 3 0
BBX 4 12 0 0
BITMAP
10
10
10
20
20
20
40
40
40
80
80
80
ENDCHAR

STARTCHAR m
ENCODING 109
SWIDTH 938 0
DWIDTH 16 0
BBX 15 9 1 0
BITMAP
2E7C
3182
2082
4084
4104
4104
8208
8208
8208
ENDCHAR

STARTCHAR n
ENCODING 110
SWIDTH 610 0
DWIDTH 10 0
BBX 9 9 1 0
BITMAP
2F00
3080
2080
4100
4100
4100
8200
8200
8200
ENDCHAR

STARTCHAR o
ENCODING 111
SWIDTH 655 0
DWIDTH 11 0
BBX 9 9 1 0
BITMAP
1E00
6100
4080
8080
8080
8080
8100
4300
3C00
ENDCHAR

STARTCHAR p
ENCODING 112
SWIDTH 682 0
DWIDTH 12 0
BBX 11 13 0 -4
BITMAP
1780
1840
1020
2020
2020
2020
6040
50C0
4F00
4000
8000
8000
8000
ENDCHAR

STARTCHAR q
ENCODING 113
SWIDTH 682 0
DWIDTH 12 0
BBX 10 13 1 -4
BITMAP
1E40
6140
40C0
8080
8080
8080
8100
4300
3D00
0100
0200
0200
0200
ENDCHAR

STARTCHAR r
ENCODING 114
SWIDTH 301 0
DWIDTH 5 0
BBX 6 9 0 0
BITMAP
2C
30
20
40
40
40
80
80
80
ENDCHAR

STARTCHAR s
ENCODING 115
SWIDTH 388 0
DWIDTH 7 0
BBX 7 9 0 0
BITMAP
3C
42
40
20
18
04
04
88
70
ENDCHAR

STARTCHAR t
ENCODING 116
SWIDTH 339 0
DWIDTH 6 0
BBX 5 12 1 0
BITMAP
10
10
20
F8
20
20
40
40
40
80
80
80
ENDCHAR

STARTCHAR u
ENCODING 117
SWIDTH 608 0
DWIDTH 10 0
BBX 9 9 1 0
BITMAP
2080
2080
2080
4100
4100
4100
8200
8200
7C00
ENDCHAR

STARTCHAR v
ENCODING 118
SWIDTH 554 0
DWIDTH 9 0
BBX 9 9 1 0
BITMAP
8080
8100
4100
4200
2400
2400
2800
1800
1000
ENDCHAR

STARTCHAR w
ENCODING 119
SWIDTH 831 0
DWIDTH 14 0
BBX 13 9 1 0
BITMAP
8208
8208
8610
4A10
4920
5120
3140
20C0
2080
ENDCHAR

STARTCHAR x
ENCODING 120
SWIDTH 480 0
DWIDTH 8 0
BBX 8 9 0 0
BITMAP
41
22
24
18
18
18
24
44
82
ENDCHAR

STARTCHAR y
ENCODING 121
SWIDTH 536 0
DWIDTH 9 0
BBX 8 12 1 -3
BITMAP
81
81
82
84
44
48
50
30
20
40
40
80
ENDCHAR

STARTCHAR z
ENCODING 122
SWIDTH 425 0
DWIDTH 7 0
BBX 7 9 0 0
BITMAP
7E
04
08
08
10
20
20
40
FC
ENDCHAR

STARTCHAR braceleft
ENCODING 123
SWIDTH 351 0
DWIDTH 6 0
BBX 6 16 0 -3
BITMAP
0C
10
10
10
10
10
20
40
C0
20
20
20
20
20
20
18
ENDCHAR

STARTCHAR bar
ENCODING 124
SWIDTH 672 0
DWIDTH 11 0
BBX 1 16 5 -3
BITMAP
80
80
80
80
80
80
80
80
80
80
80
80
80
80
80
80
ENDCHAR

STARTCHAR braceright
ENCODING 125
SWIDTH 351 0
DWIDTH 6 0
BBX 6 16 0 -3
BITMAP
60
10
10
10
10
10
10
08
0C
10
20
20
20
20
20
C0
ENDCHAR

STARTCHAR asciitilde
ENCODING 126
SWIDTH 606 0
DWIDTH 10 0
BBX 8 2 1 5
BITMAP
71
8E
ENDCHAR

STARTCHAR space
ENCODING 160
SWIDTH 277 0
DWIDTH 6 0
BBX 0 0 0 0
BITMAP
ENDCHAR

STARTCHAR Aogonek
ENCODING 161
SWIDTH 740 0
DWIDTH 13 0
BBX 12 15 1 -3
BITMAP
0200
0200
0500
0900
0880
1080
1080
3FC0
4040
4040
8020
8020
0040
0040
0030
ENDCHAR

STARTCHAR afii240
ENCODING 162
SWIDTH 500 0
DWIDTH 9 0
BBX 7 9 1 0
BITMAP
22
24
28
50
60
50
88
88
84
ENDCHAR

STARTCHAR Rcommaaccent
ENCODING 163
SWIDTH 607 0
DWIDTH 10 0
BBX 9 15 1 -3
BITMAP
1F00
1080
1080
2080
2100
3E00
4800
4400
4400
8200
8200
8100
0000
1000
2000
ENDCHAR

STARTCHAR currency
ENCODING 164
SWIDTH 554 0
DWIDTH 9 0
BBX 8 8 1 2
BITMAP
BD
42
81
81
81
81
42
BD
ENDCHAR

STARTCHAR Itilde
ENCODING 165
SWIDTH 226 0
DWIDTH 4 0
BBX 8 15 1 0
BITMAP
19
26
00
10
10
10
20
20
20
40
40
40
80
80
80
ENDCHAR

STARTCHAR Lcommaaccent
ENCODING 166
SWIDTH 462 0
DWIDTH 8 0
BBX 7 15 1 -3
BITMAP
10
10
10
20
20
20
40
40
40
80
80
FE
00
20
40
ENDCHAR

STARTCHAR section
ENCODING 167
SWIDTH 615 0
DWIDTH 10 0
BBX 6 16 2 -4
BITMAP
38
44
40
40
20
70
88
84
84
44
38
10
08
08
88
70
ENDCHAR

STARTCHAR hungarumlaut
ENCODING 168
SWIDTH 552 0
DWIDTH 9 0
BBX 6 3 2 12
BITMAP
6C
48
90
ENDCHAR

STARTCHAR Scaron
ENCODING 169
SWIDTH 498 0
DWIDTH 8 0
BBX 9 16 0 0
BITMAP
1100
0A00
0400
0000
0E00
1100
2080
2000
1000
0800
0400
0200
0200
8200
4400
3800
ENDCHAR

STARTCHAR Emacron
ENCODING 170
SWIDTH 536 0
DWIDTH 9 0
BBX 9 15 1 0
BITMAP
0F80
0000
0000
1F80
1000
1000
2000
2000
3F00
4000
4000
4000
8000
8000
FE00
ENDCHAR

STARTCHAR Gcommaaccent
ENCODING 171
SWIDTH 872 0
DWIDTH 7 0
BBX 8 15 0 -3
BITMAP
7F
08
08
10
10
10
20
20
20
40
40
40
00
40
80
ENDCHAR

STARTCHAR afii237
ENCODING 172
SWIDTH 614 0
DWIDTH 7 0
BBX 8 12 0 0
BITMAP
7F
08
08
10
10
FC
20
20
20
40
40
40
ENDCHAR

STARTCHAR hyphen
ENCODING 173
SWIDTH 332 0
DWIDTH 6 0
BBX 4 1 1 4
BITMAP
F0
ENDCHAR

STARTCHAR Zcaron
ENCODING 174
SWIDTH 480 0
DWIDTH 8 0
BBX 9 16 0 0
BITMAP
1100
0A00
0400
0000
7F80
0100
0200
0200
0400
0800
0800
1000
2000
2000
4000
FE00
ENDCHAR

STARTCHAR macron
ENCODING 175
SWIDTH 485 0
DWIDTH 8 0
BBX 5 1 2 12
BITMAP
F8
ENDCHAR

STARTCHAR degree
ENCODING 176
SWIDTH 400 0
DWIDTH 7 0
BBX 6 6 1 7
BITMAP
78
84
84
84
84
78
ENDCHAR

STARTCHAR aogonek
ENCODING 177
SWIDTH 683 0
DWIDTH 12 0
BBX 10 12 1 -3
BITMAP
1E40
6140
40C0
8080
8080
8080
8100
4300
3D00
0200
0200
0180
ENDCHAR

STARTCHAR ogonek
ENCODING 178
SWIDTH 302 0
DWIDTH 5 0
BBX 3 4 1 -3
BITMAP
40
80
80
60
ENDCHAR

STARTCHAR rcommaaccent
ENCODING 179
SWIDTH 301 0
DWIDTH 5 0
BBX 6 12 0 -3
BITMAP
2C
30
20
40
40
40
80
80
80
00
40
80
ENDCHAR

STARTCHAR acute
ENCODING 180
SWIDTH 375 0
DWIDTH 6 0
BBX 3 3 2 12
BITMAP
60
40
80
ENDCHAR

STARTCHAR itilde
ENCODING 181
SWIDTH 200 0
DWIDTH 3 0
BBX 6 12 0 0
BITMAP
64
98
00
20
20
20
40
40
40
80
80
80
ENDCHAR

STARTCHAR lcommaaccent
ENCODING 182
SWIDTH 200 0
DWIDTH 3 0
BBX 5 15 -1 -3
BITMAP
08
08
08
10
10
10
20
20
20
40
40
40
00
40
80
ENDCHAR

STARTCHAR caron
ENCODING 183
SWIDTH 502 0
DWIDTH 9 0
BBX 5 3 3 12
BITMAP
88
50
20
ENDCHAR

STARTCHAR commaaccent
ENCODING 184
SWIDTH 333 0
DWIDTH 6 0
BBX 2 2 2 -3
BITMAP
40
80
ENDCHAR

STARTCHAR scaron
ENCODING 185
SWIDTH 388 0
DWIDTH 7 0
BBX 7 13 0 0
BITMAP
22
14
08
00
3C
42
40
20
18
04
04
88
70
ENDCHAR

STARTCHAR emacron
ENCODING 186
SWIDTH 650 0
DWIDTH 11 0
BBX 9 12 1 0
BITMAP
1F00
0000
0000
1E00
6100
4080
8080
FF00
8000
8000
4300
3C00
ENDCHAR

STARTCHAR gcommaaccent
ENCODING 187
SWIDTH 673 0
DWIDTH 11 0
BBX 10 15 1 -3
BITMAP
0200
0400
0000
1E40
61C0
40C0
8040
8080
8080
4180
6280
1D00
0100
C300
3C00
ENDCHAR

STARTCHAR afii253
ENCODING 188
SWIDTH 280 0
DWIDTH 6 0
BBX 6 12 0 0
BITMAP
08
08
10
7C
10
10
FC
20
20
40
40
40
ENDCHAR

STARTCHAR afii238
ENCODING 189
SWIDTH 723 0
DWIDTH 12 0
BBX 12 13 0 0
BITMAP
1380
1460
1820
2010
2010
2010
2010
4010
4010
4020
8020
80C0
8700
ENDCHAR

STARTCHAR zcaron
ENCODING 190
SWIDTH 425 0
DWIDTH 7 0
BBX 7 13 0 0
BITMAP
22
14
08
00
7E
04
08
08
10
20
20
40
FC
ENDCHAR

STARTCHAR afii254
ENCODING 191
SWIDTH 556 0
DWIDTH 9 0
BBX 8 12 1 -3
BITMAP
2E
31
21
41
41
42
82
82
84
04
04
18
ENDCHAR

STARTCHAR Amacron
ENCODING 192
SWIDTH 740 0
DWIDTH 13 0
BBX 11 15 1 0
BITMAP
0F80
0000
0000
0200
0200
0500
0900
0880
1080
1080
3FC0
4040
4040
8020
8020
ENDCHAR

STARTCHAR Aacute
ENCODING 193
SWIDTH 740 0
DWIDTH 13 0
BBX 11 16 1 0
BITMAP
0180
0100
0200
0000
0200
0200
0500
0900
0880
1080
1080
3FC0
4040
4040
8020
8020
ENDCHAR

STARTCHAR Acircumflex
ENCODING 194
SWIDTH 740 0
DWIDTH 13 0
BBX 11 16 1 0
BITMAP
0100
0280
0440
0000
0200
0200
0500
0900
0880
1080
1080
3FC0
4040
4040
8020
8020
ENDCHAR

STARTCHAR Atilde
ENCODING 195
SWIDTH 740 0
DWIDTH 13 0
BBX 11 15 1 0
BITMAP
0640
0980
0000
0200
0200
0500
0900
0880
1080
1080
3FC0
4040
4040
8020
8020
ENDCHAR

STARTCHAR Adieresis
ENCODING 196
SWIDTH 740 0
DWIDTH 13 0
BBX 11 15 1 0
BITMAP
0880
0880
0000
0200
0200
0500
0900
0880
1080
1080
3FC0
4040
4040
8020
8020
ENDCHAR

STARTCHAR Aring
ENCODING 197
SWIDTH 740 0
DWIDTH 13 0
BBX 11 16 1 0
BITMAP
0700
0880
0880
0500
0200
0200
0500
0900
0880
1080
1080
3FC0
4040
4040
8020
8020
ENDCHAR

STARTCHAR AE
ENCODING 198
SWIDTH 992 0
DWIDTH 17 0
BBX 15 13 1 0
BITMAP
00FE
0140
0240
0440
0480
0880
10FC
1100
3F00
4100
4200
8200
83F8
ENDCHAR

STARTCHAR Iogonek
ENCODING 199
SWIDTH 226 0
DWIDTH 4 0
BBX 5 15 0 -3
BITMAP
08
08
08
10
10
10
20
20
20
40
40
40
80
80
60
ENDCHAR

STARTCHAR Ccaron
ENCODING 200
SWIDTH 813 0
DWIDTH 14 0
BBX 11 16 2 0
BITMAP
0880
0500
0200
0000
0700
18C0
2060
4000
4000
8000
8000
8000
8000
40C0
6180
1E00
ENDCHAR

STARTCHAR Eacute
ENCODING 201
SWIDTH 536 0
DWIDTH 9 0
BBX 9 16 1 0
BITMAP
0300
0200
0400
0000
1F80
1000
1000
2000
2000
3F00
4000
4000
4000
8000
8000
FE00
ENDCHAR

STARTCHAR Eogonek
ENCODING 202
SWIDTH 536 0
DWIDTH 9 0
BBX 9 15 1 -3
BITMAP
1F80
1000
1000
2000
2000
3F00
4000
4000
4000
8000
8000
FE00
0400
0400
0300
ENDCHAR

STARTCHAR Edieresis
ENCODING 203
SWIDTH 536 0
DWIDTH 9 0
BBX 9 15 1 0
BITMAP
0900
0900
0000
1F80
1000
1000
2000
2000
3F00
4000
4000
4000
8000
8000
FE00
ENDCHAR

STARTCHAR Edotaccent
ENCODING 204
SWIDTH 536 0
DWIDTH 9 0
BBX 9 15 1 0
BITMAP
0200
0200
0000
1F80
1000
1000
2000
2000
3F00
4000
4000
4000
8000
8000
FE00
ENDCHAR

STARTCHAR Iacute
ENCODING 205
SWIDTH 226 0
DWIDTH 4 0
BBX 6 16 1 0
BITMAP
0C
08
10
00
10
10
10
20
20
20
40
40
40
80
80
80
ENDCHAR

STARTCHAR Icircumflex
ENCODING 206
SWIDTH 226 0
DWIDTH 4 0
BBX 7 16 1 0
BITMAP
08
14
22
00
10
10
10
20
20
20
40
40
40
80
80
80
ENDCHAR

STARTCHAR Imacron
ENCODING 207
SWIDTH 226 0
DWIDTH 4 0
BBX 6 15 1 0
BITMAP
7C
00
00
10
10
10
20
20
20
40
40
40
80
80
80
ENDCHAR

STARTCHAR Eth
ENCODING 208
SWIDTH 790 0
DWIDTH 13 0
BBX 11 12 1 0
BITMAP
1F00
10C0
1040
2020
2020
FC20
4020
4040
4040
8080
8300
FC00
ENDCHAR

STARTCHAR Ncommaaccent
ENCODING 209
SWIDTH 740 0
DWIDTH 12 0
BBX 11 15 1 -3
BITMAP
1020
1020
1820
2840
2440
2440
4480
4280
4280
8300
8100
8100
0000
0800
1000
ENDCHAR

STARTCHAR Omacron
ENCODING 210
SWIDTH 869 0
DWIDTH 15 0
BBX 12 15 2 0
BITMAP
07E0
0000
0000
0780
1860
2020
4010
4010
8010
8010
8020
8020
4040
6180
1E00
ENDCHAR

STARTCHAR Kcommaaccent
ENCODING 211
SWIDTH 591 0
DWIDTH 10 0
BBX 9 15 1 -3
BITMAP
1080
1100
1200
2400
2800
3000
4800
4400
4400
8200
8100
8100
0000
1000
2000
ENDCHAR

STARTCHAR Ocircumflex
ENCODING 212
SWIDTH 869 0
DWIDTH 15 0
BBX 12 16 2 0
BITMAP
0100
0280
0440
0000
0780
1860
2020
4010
4010
8010
8010
8020
8020
4040
6180
1E00
ENDCHAR

STARTCHAR Otilde
ENCODING 213
SWIDTH 869 0
DWIDTH 15 0
BBX 12 15 2 0
BITMAP
0320
04C0
0000
0780
1860
2020
4010
4010
8010
8010
8020
8020
4040
6180
1E00
ENDCHAR

STARTCHAR Odieresis
ENCODING 214
SWIDTH 869 0
DWIDTH 15 0
BBX 12 15 2 0
BITMAP
0440
0440
0000
0780
1860
2020
4010
4010
8010
8010
8020
8020
4040
6180
1E00
ENDCHAR

STARTCHAR multiply
ENCODING 215
SWIDTH 606 0
DWIDTH 10 0
BBX 7 7 2 3
BITMAP
82
44
28
38
28
44
82
ENDCHAR

STARTCHAR Oslash
ENCODING 216
SWIDTH 868 0
DWIDTH 15 0
BBX 12 12 2 0
BITMAP
0790
1860
2060
4090
4110
8110
8210
8420
8820
5840
6180
9E00
ENDCHAR

STARTCHAR Uogonek
ENCODING 217
SWIDTH 655 0
DWIDTH 11 0
BBX 10 15 1 -3
BITMAP
2040
2040
2040
4080
4080
4080
4100
8100
8100
8200
4200
3C00
0800
0800
0600
ENDCHAR

STARTCHAR Uacute
ENCODING 218
SWIDTH 655 0
DWIDTH 11 0
BBX 10 16 1 0
BITMAP
0300
0200
0400
0000
2040
2040
2040
4080
4080
4080
4100
8100
8100
8200
4200
3C00
ENDCHAR

STARTCHAR Ucircumflex
ENCODING 219
SWIDTH 655 0
DWIDTH 11 0
BBX 10 16 1 0
BITMAP
0100
0280
0440
0000
2040
2040
2040
4080
4080
4080
4100
8100
8100
8200
4200
3C00
ENDCHAR

STARTCHAR Udieresis
ENCODING 220
SWIDTH 655 0
DWIDTH 11 0
BBX 10 15 1 0
BITMAP
0880
0880
0000
2040
2040
2040
4080
4080
4080
4100
8100
8100
8200
4200
3C00
ENDCHAR

STARTCHAR Utilde
ENCODING 221
SWIDTH 655 0
DWIDTH 11 0
BBX 10 15 1 0
BITMAP
0640
0980
0000
2040
2040
2040
4080
4080
4080
4100
8100
8100
8200
4200
3C00
ENDCHAR

STARTCHAR Umacron
ENCODING 222
SWIDTH 655 0
DWIDTH 11 0
BBX 10 15 1 0
BITMAP
0F80
0000
0000
2040
2040
2040
4080
4080
4080
4100
8100
8100
8200
4200
3C00
ENDCHAR

STARTCHAR germandbls
ENCODING 223
SWIDTH 554 0
DWIDTH 9 0
BBX 9 13 0 0
BITMAP
0700
0980
1080
1080
2100
2600
2300
4100
4080
4080
8080
9100
8E00
ENDCHAR

STARTCHAR amacron
ENCODING 224
SWIDTH 683 0
DWIDTH 12 0
BBX 10 12 1 0
BITMAP
0FC0
0000
0000
1E40
6140
40C0
8080
8080
8080
8100
4300
3D00
ENDCHAR

STARTCHAR aacute
ENCODING 225
SWIDTH 683 0
DWIDTH 12 0
BBX 10 13 1 0
BITMAP
0180
0100
0200
0000
1E40
6140
40C0
8080
8080
8080
8100
4300
3D00
ENDCHAR

STARTCHAR acircumflex
ENCODING 226
SWIDTH 683 0
DWIDTH 12 0
BBX 10 13 1 0
BITMAP
0200
0500
0880
0000
1E40
6140
40C0
8080
8080
8080
8100
4300
3D00
ENDCHAR

STARTCHAR atilde
ENCODING 227
SWIDTH 683 0
DWIDTH 12 0
BBX 10 12 1 0
BITMAP
0C80
1300
0000
1E40
6140
40C0
8080
8080
8080
8100
4300
3D00
ENDCHAR

STARTCHAR adieresis
ENCODING 228
SWIDTH 683 0
DWIDTH 12 0
BBX 10 12 1 0
BITMAP
0880
0880
0000
1E40
6140
40C0
8080
8080
8080
8100
4300
3D00
ENDCHAR

STARTCHAR aring
ENCODING 229
SWIDTH 683 0
DWIDTH 12 0
BBX 10 14 1 0
BITMAP
0300
0480
0480
0300
0000
1E40
6140
40C0
8080
8080
8080
8100
4300
3D00
ENDCHAR

STARTCHAR ae
ENCODING 230
SWIDTH 1157 0
DWIDTH 20 0
BBX 18 9 1 0
BITMAP
1E4F00
61F080
40E040
804040
807F80
80C000
41C000
63A180
1C9E00
ENDCHAR

STARTCHAR iogonek
ENCODING 231
SWIDTH 200 0
DWIDTH 3 0
BBX 5 15 -1 -3
BITMAP
08
08
00
10
10
10
20
20
20
40
40
40
80
80
60
ENDCHAR

STARTCHAR ccaron
ENCODING 232
SWIDTH 647 0
DWIDTH 11 0
BBX 9 13 1 0
BITMAP
1100
0A00
0400
0000
1E00
6180
4080
8000
8000
8000
4100
6300
1C00
ENDCHAR

STARTCHAR eacute
ENCODING 233
SWIDTH 650 0
DWIDTH 11 0
BBX 9 13 1 0
BITMAP
0600
0400
0800
0000
1E00
6100
4080
8080
FF00
8000
8000
4300
3C00
ENDCHAR

STARTCHAR eogonek
ENCODING 234
SWIDTH 650 0
DWIDTH 11 0
BBX 9 12 1 -3
BITMAP
1E00
6100
4080
8080
FF00
8000
8000
4300
3C00
1000
1000
0C00
ENDCHAR

STARTCHAR edieresis
ENCODING 235
SWIDTH 650 0
DWIDTH 11 0
BBX 9 12 1 0
BITMAP
1100
1100
0000
1E00
6100
4080
8080
FF00
8000
8000
4300
3C00
ENDCHAR

STARTCHAR edotaccent
ENCODING 236
SWIDTH 650 0
DWIDTH 11 0
BBX 9 12 1 0
BITMAP
0400
0400
0000
1E00
6100
4080
8080
FF00
8000
8000
4300
3C00
ENDCHAR

STARTCHAR iacute
ENCODING 237
SWIDTH 200 0
DWIDTH 3 0
BBX 5 13 0 0
BITMAP
18
10
20
00
20
20
20
40
40
40
80
80
80
ENDCHAR

STARTCHAR icircumflex
ENCODING 238
SWIDTH 200 0
DWIDTH 3 0
BBX 6 13 0 0
BITMAP
10
28
44
00
20
20
20
40
40
40
80
80
80
ENDCHAR

STARTCHAR imacron
ENCODING 239
SWIDTH 200 0
DWIDTH 3 0
BBX 6 12 0 0
BITMAP
7C
00
00
20
20
20
40
40
40
80
80
80
ENDCHAR

STARTCHAR dcroat
ENCODING 240
SWIDTH 685 0
DWIDTH 12 0
BBX 12 12 1 0
BITMAP
0020
01F0
0020
1E40
6140
40C0
8080
8080
8080
8100
4300
3D00
ENDCHAR

STARTCHAR ncommaaccent
ENCODING 241
SWIDTH 610 0
DWIDTH 10 0
BBX 9 12 1 -3
BITMAP
2F00
3080
2080
4100
4100
4100
8200
8200
8200
0000
2000
4000
ENDCHAR

STARTCHAR omacron
ENCODING 242
SWIDTH 655 0
DWIDTH 11 0
BBX 9 12 1 0
BITMAP
1F00
0000
0000
1E00
6100
4080
8080
8080
8080
8100
4300
3C00
ENDCHAR

STARTCHAR kcommaaccent
ENCODING 243
SWIDTH 502 0
DWIDTH 9 0
BBX 8 15 1 -3
BITMAP
10
10
10
23
24
28
50
68
44
84
82
81
00
20
40
ENDCHAR

STARTCHAR ocircumflex
ENCODING 244
SWIDTH 655 0
DWIDTH 11 0
BBX 9 13 1 0
BITMAP
0400
0A00
1100
0000
1E00
6100
4080
8080
8080
8080
8100
4300
3C00
ENDCHAR

STARTCHAR otilde
ENCODING 245
SWIDTH 655 0
DWIDTH 11 0
BBX 9 12 1 0
BITMAP
1900
2600
0000
1E00
6100
4080
8080
8080
8080
8100
4300
3C00
ENDCHAR

STARTCHAR odieresis
ENCODING 246
SWIDTH 655 0
DWIDTH 11 0
BBX 9 12 1 0
BITMAP
1100
1100
0000
1E00
6100
4080
8080
8080
8080
8100
4300
3C00
ENDCHAR

STARTCHAR divide
ENCODING 247
SWIDTH 606 0
DWIDTH 10 0
BBX 8 9 1 2
BITMAP
18
18
00
00
FF
00
00
18
18
ENDCHAR

STARTCHAR oslash
ENCODING 248
SWIDTH 653 0
DWIDTH 11 0
BBX 9 9 1 0
BITMAP
1E80
6100
4280
8480
8880
9080
A100
4300
BC00
ENDCHAR

STARTCHAR uogonek
ENCODING 249
SWIDTH 608 0
DWIDTH 10 0
BBX 9 12 1 -3
BITMAP
2080
2080
2080
4100
4100
4100
8200
8200
7C00
1000
1000
0C00
ENDCHAR

STARTCHAR uacute
ENCODING 250
SWIDTH 608 0
DWIDTH 10 0
BBX 9 13 1 0
BITMAP
0300
0200
0400
0000
2080
2080
2080
4100
4100
4100
8200
8200
7C00
ENDCHAR

STARTCHAR ucircumflex
ENCODING 251
SWIDTH 608 0
DWIDTH 10 0
BBX 9 13 1 0
BITMAP
0200
0500
0880
0000
2080
2080
2080
4100
4100
4100
8200
8200
7C00
ENDCHAR

STARTCHAR udieresis
ENCODING 252
SWIDTH 608 0
DWIDTH 10 0
BBX 9 12 1 0
BITMAP
0900
0900
0000
2080
2080
2080
4100
4100
4100
8200
8200
7C00
ENDCHAR

STARTCHAR utilde
ENCODING 253
SWIDTH 608 0
DWIDTH 10 0
BBX 9 12 1 0
BITMAP
0C80
1300
0000
2080
2080
2080
4100
4100
4100
8200
8200
7C00
ENDCHAR

STARTCHAR umacron
ENCODING 254
SWIDTH 608 0
DWIDTH 10 0
BBX 9 12 1 0
BITMAP
0F80
0000
0000
2080
2080
2080
4100
4100
4100
8200
8200
7C00
ENDCHAR

STARTCHAR dotaccent
ENCODING 255
SWIDTH 222 0
DWIDTH 4 0
BBX 1 2 2 12
BITMAP
80
80
ENDCHAR
ENDFONT
